# xmcd
# Copyright (C) 1995-1998 Ti Kan
#
# Track frame offsets:
#       150
#       15467
#       31232
#       48685
#       65930
#       81645
#       96372
#       112772
#       130342
#       148652
#       163220
#       180007
#
# Disc length: 2733 seconds
#
# Revision: 0
# Processed by: cddbd v1.5PL3 Copyright (c) Steve Scherf et al.
# Submitted via: CD-Transfer v1.0
#
DISCID=a50aab0c
DTITLE=C7inch - Come and Get Me
DYEAR=2004
DGENRE=
TTITLE0=Today
TTITLE1=The Sun
TTITLE2=Morning Face
TTITLE3=Not The Same
TTITLE4=Pain Or Gain
TTITLE5=Move On
TTITLE6=Change
TTITLE7=Beyond
TTITLE8=Another Line Of Mine
TTITLE9=Stranger
TTITLE10=Tomorrow
TTITLE11=Drives Me Into Madness
EXTD=
EXTT0=
EXTT1=
EXTT2=
EXTT3=
EXTT4=
EXTT5=
EXTT6=
EXTT7=
EXTT8=
EXTT9=
EXTT10=
EXTT11=
PLAYORDER=
